<?xml version="1.0" standalone="no"?>
<!DOCTYPE svg PUBLIC "-//W3C//DTD SVG 20010904//EN"
 "http://www.w3.org/TR/2001/REC-SVG-20010904/DTD/svg10.dtd">
<svg version="1.0" xmlns="http://www.w3.org/2000/svg"
 width="235.000000pt" height="226.000000pt" viewBox="0 0 235.000000 226.000000"
 preserveAspectRatio="xMidYMid meet">

<g transform="translate(0.000000,226.000000) scale(0.100000,-0.100000)"
fill="#9ca3af" stroke="none">
<path d="M427 2093 c-9 -10 -66 -68 -127 -129 -72 -73 -110 -118 -110 -132 0
-20 278 -339 454 -520 73 -75 131 -98 221 -87 l56 7 54 -58 c30 -33 55 -61 55
-64 0 -3 -180 -167 -401 -364 -220 -198 -409 -370 -420 -384 -11 -15 -19 -40
-19 -63 0 -32 9 -49 53 -101 87 -103 150 -131 205 -92 12 8 187 198 389 421
356 393 367 405 383 385 9 -11 182 -198 385 -416 309 -333 373 -397 401 -402
41 -8 124 19 152 49 40 44 63 128 46 172 -4 9 -191 188 -416 397 l-410 381
119 58 c144 71 264 160 404 299 117 116 201 224 247 315 94 188 79 345 -33
345 -29 0 -6 21 -558 -509 l-359 -344 -56 54 c-31 30 -60 58 -64 64 -4 5 -6
41 -5 80 3 120 -1 126 -312 407 -182 165 -281 248 -296 248 -12 0 -29 -8 -38
-17z m296 -262 c139 -125 259 -237 268 -247 27 -31 42 -92 35 -144 -4 -26 -2
-59 3 -72 5 -14 254 -252 553 -530 299 -278 551 -515 562 -526 37 -42 3 -132
-59 -158 -73 -30 -47 -54 -598 539 -282 303 -522 559 -532 567 -13 11 -38 14
-94 12 -64 -2 -83 1 -118 20 -26 15 -123 113 -268 273 -124 138 -229 256 -232
263 -3 7 -1 18 5 24 7 7 60 -41 174 -158 89 -93 180 -186 201 -208 31 -32 40
-36 52 -26 8 7 15 17 15 23 0 5 -75 88 -167 184 -216 225 -230 241 -208 249
12 5 52 -27 148 -122 285 -279 275 -270 294 -251 17 16 11 24 -104 140 -230
232 -282 291 -271 304 11 14 39 -10 292 -251 130 -123 166 -145 166 -102 0 8
-90 102 -201 209 -180 175 -214 217 -178 217 6 0 124 -103 262 -229z m1425
217 c21 -21 14 -122 -13 -194 -66 -176 -292 -428 -524 -584 -35 -23 -111 -65
-169 -92 l-105 -50 -51 52 -51 51 45 41 c25 23 95 89 155 147 107 103 504 483
615 589 56 53 77 61 98 40z m-1028 -1030 l48 -53 -72 -80 c-498 -553 -651
-722 -664 -732 -34 -28 -67 -15 -130 51 -47 48 -62 71 -62 93 0 15 4 33 8 38
4 6 93 87 197 181 105 94 286 257 404 362 117 106 215 192 218 192 2 0 26 -24
53 -52z"/>
</g>
</svg>
