<?xml version="1.0" standalone="no"?>
<!DOCTYPE svg PUBLIC "-//W3C//DTD SVG 20010904//EN"
 "http://www.w3.org/TR/2001/REC-SVG-20010904/DTD/svg10.dtd">
<svg version="1.0" xmlns="http://www.w3.org/2000/svg"
 width="364.000000pt" height="451.000000pt" viewBox="0 0 364.000000 451.000000"
 preserveAspectRatio="xMidYMid meet">

<g transform="translate(0.000000,451.000000) scale(0.100000,-0.100000)"
fill="#9ca3af" stroke="none">
<path d="M1252 4388 c-9 -9 -12 -83 -12 -270 l0 -258 30 0 30 0 0 254 c0 218
-2 257 -16 270 -19 19 -17 19 -32 4z"/>
<path d="M693 4173 c-25 -9 -12 -40 48 -113 165 -205 161 -200 196 -200 18 0
33 3 33 6 0 3 -35 47 -77 98 -43 52 -98 119 -123 149 -48 59 -58 67 -77 60z"/>
<path d="M1699 4030 c-68 -83 -125 -155 -127 -160 -2 -6 12 -10 30 -10 31 0
42 10 143 135 61 74 112 142 113 151 4 15 -13 33 -29 34 -4 0 -62 -68 -130
-150z"/>
<path d="M370 3804 c-11 -12 -11 -18 1 -29 13 -13 300 -125 320 -125 10 0 33
40 26 47 -6 6 -317 123 -327 123 -4 0 -13 -7 -20 -16z"/>
<path d="M1975 3758 c-88 -33 -162 -62 -164 -65 -3 -2 5 -13 16 -25 l22 -21
158 60 c143 54 158 62 158 84 0 13 -6 25 -15 26 -8 1 -87 -25 -175 -59z"/>
<path d="M1243 3742 l-322 -2 -58 -68 c-32 -37 -60 -69 -63 -72 -35 -35 -110
-131 -110 -141 0 -8 26 -41 57 -74 176 -185 232 -244 362 -382 80 -84 152
-153 161 -153 10 0 102 91 206 202 104 111 230 244 279 296 50 52 91 100 93
107 2 8 -49 74 -113 148 -87 101 -123 136 -143 138 -15 2 -172 3 -349 1z m-50
-58 c3 -4 -13 -27 -37 -53 -24 -25 -56 -61 -71 -79 -15 -18 -31 -30 -35 -25
-14 15 -68 152 -62 158 7 7 197 6 205 -1z m357 -6 c0 -14 -49 -140 -59 -150
-3 -4 -39 28 -78 71 -40 43 -69 81 -66 85 12 12 203 7 203 -6z m-198 -96 l77
-87 -80 -3 c-43 -2 -115 -2 -159 0 l-79 3 77 87 c42 48 79 87 82 87 3 0 40
-40 82 -87z m-386 -15 c13 -34 24 -64 24 -69 0 -4 -45 -8 -101 -8 -55 0 -99 4
-97 8 2 4 32 42 68 84 73 85 67 86 106 -15z m705 21 c94 -109 96 -98 -20 -98
-71 0 -101 3 -101 12 0 17 54 148 61 148 3 0 30 -28 60 -62z m-584 -328 c107
-274 109 -262 -23 -125 -63 66 -152 160 -196 208 l-81 88 118 -3 118 -3 64
-165z m363 163 c0 -10 -170 -446 -176 -452 -2 -2 -6 -2 -9 1 -7 7 -175 438
-175 449 0 5 79 9 180 9 99 0 180 -3 180 -7z m249 -50 c-30 -32 -84 -89 -120
-128 -127 -137 -212 -225 -216 -222 -1 2 29 84 68 183 39 98 75 189 80 202 8
21 13 22 126 22 l117 0 -55 -57z"/>
<path d="M81 3476 c-6 -7 -9 -21 -5 -30 5 -14 34 -16 253 -16 l248 0 0 30 0
30 -242 0 c-194 0 -245 -3 -254 -14z"/>
<path d="M1960 3460 l0 -30 244 0 c204 0 246 2 256 15 10 12 10 18 0 30 -10
13 -52 15 -256 15 l-244 0 0 -30z"/>
<path d="M530 3214 c-163 -63 -183 -75 -158 -101 16 -15 29 -12 185 47 92 34
170 64 172 66 7 6 -31 44 -43 44 -6 -1 -76 -26 -156 -56z"/>
<path d="M1820 3249 c-7 -11 -10 -22 -8 -24 2 -1 79 -31 171 -65 169 -64 194
-67 185 -24 -2 13 -46 34 -158 76 -85 32 -160 58 -167 58 -7 0 -17 -9 -23 -21z"/>
<path d="M823 3071 c-349 -138 -619 -446 -720 -821 -34 -128 -43 -360 -19
-498 74 -424 367 -775 776 -929 99 -38 223 -62 352 -69 l116 -7 28 -51 c97
-181 229 -322 416 -446 350 -233 839 -251 1215 -45 304 166 511 436 599 780
25 98 28 128 28 270 1 207 -26 336 -107 516 -74 164 -222 344 -382 464 -91 69
-285 161 -396 189 -96 25 -250 46 -331 46 -43 0 -43 1 -80 69 -51 95 -145 216
-223 289 -116 109 -295 219 -417 258 -56 17 -58 17 -78 -1 -11 -10 -20 -21
-20 -24 0 -4 21 -12 46 -19 62 -17 194 -81 275 -134 137 -89 260 -218 347
-362 23 -39 42 -73 42 -77 0 -3 -39 -14 -87 -23 -81 -15 -89 -15 -98 0 -33 54
-113 151 -167 204 -115 112 -281 205 -441 244 l-68 17 -19 -23 c-26 -30 -25
-38 4 -38 37 0 191 -47 249 -76 90 -45 180 -110 245 -176 77 -78 148 -176 136
-187 -5 -5 -27 -14 -49 -21 -127 -40 -303 -155 -426 -279 -232 -233 -349 -508
-352 -831 -1 -74 2 -157 6 -184 l9 -49 -69 6 c-294 28 -575 227 -708 500 -69
144 -90 235 -89 402 0 158 14 231 68 356 108 249 311 430 574 513 46 14 96 26
113 26 35 0 37 9 6 38 l-23 22 -80 -20 c-296 -76 -558 -316 -664 -608 -166
-458 38 -968 475 -1190 129 -66 238 -93 390 -99 249 -10 450 54 640 202 231
180 364 446 368 735 1 63 -1 138 -6 166 -9 61 -8 62 98 71 l72 6 6 -54 c12
-94 8 -283 -8 -370 -91 -523 -542 -913 -1080 -936 -651 -27 -1186 485 -1187
1137 -1 269 84 513 253 725 126 159 353 316 529 366 57 16 57 15 35 39 -23 26
-36 25 -122 -9z m1734 -672 c182 -24 367 -96 517 -199 143 -99 299 -284 376
-444 165 -347 142 -765 -59 -1092 -209 -338 -578 -544 -976 -544 -349 0 -669
155 -898 435 -39 48 -117 172 -117 187 0 16 173 52 178 37 2 -5 30 -45 61 -87
135 -180 310 -301 527 -364 69 -20 100 -23 254 -22 161 0 182 2 263 27 167 51
301 132 420 254 90 91 130 149 183 258 74 155 89 224 89 415 0 141 -3 177 -23
249 -74 269 -260 497 -507 619 -485 241 -1063 39 -1301 -453 -24 -49 -53 -126
-65 -170 -24 -96 -36 -296 -21 -375 6 -30 7 -59 2 -63 -4 -5 -44 -11 -87 -14
l-80 -6 -7 34 c-27 135 -14 343 31 499 121 417 482 742 903 810 41 6 82 13 90
15 37 7 176 4 247 -6z m41 -245 c172 -35 327 -120 457 -249 275 -275 346 -670
184 -1023 -49 -107 -109 -190 -195 -273 -86 -81 -143 -121 -247 -169 -284
-132 -623 -107 -882 65 -33 22 -88 67 -123 100 -62 58 -152 172 -152 193 0 6
26 20 58 32 271 102 515 323 646 586 97 196 133 372 123 610 l-6 144 30 0 c16
0 65 -7 107 -16z m-431 -51 c15 -54 9 -264 -11 -347 -64 -275 -241 -498 -491
-617 -150 -72 -142 -72 -150 7 -4 37 -5 117 -3 178 5 93 11 129 42 220 85 255
241 429 490 547 98 46 113 48 123 12z"/>
</g>
</svg>
