<?xml version="1.0" standalone="no"?>
<!DOCTYPE svg PUBLIC "-//W3C//DTD SVG 20010904//EN"
 "http://www.w3.org/TR/2001/REC-SVG-20010904/DTD/svg10.dtd">
<svg version="1.0" xmlns="http://www.w3.org/2000/svg"
 width="360.000000pt" height="360.000000pt" viewBox="0 0 360.000000 360.000000"
 preserveAspectRatio="xMidYMid meet">

<g transform="translate(0.000000,360.000000) scale(0.100000,-0.100000)"
fill="#000000" stroke="none">
<path d="M1801 3368 c-25 -13 -58 -40 -75 -61 -25 -31 -31 -49 -34 -103 -4
-57 -1 -72 27 -129 42 -84 233 -285 271 -285 34 0 234 204 274 279 50 93 38
189 -33 264 -56 61 -129 74 -202 36 -39 -19 -42 -20 -76 -4 -59 28 -103 29
-152 3z m349 -73 c36 -18 65 -91 56 -137 -10 -48 -57 -115 -141 -198 l-76 -75
-84 87 c-137 143 -167 236 -95 301 42 37 88 37 133 -3 42 -36 46 -37 83 -4 51
45 80 52 124 29z"/>
<path d="M2445 3105 c-81 -29 -144 -135 -129 -217 8 -43 48 -123 80 -162 15
-17 64 -70 111 -118 65 -68 90 -88 111 -88 21 0 51 24 139 113 139 143 167
191 161 288 -3 56 -9 76 -33 110 -42 59 -76 81 -132 86 -37 3 -59 -1 -94 -19
-44 -22 -46 -23 -75 -6 -43 25 -94 30 -139 13z m352 -98 c45 -41 51 -111 16
-181 -19 -36 -182 -206 -197 -205 -6 1 -46 39 -90 87 -129 140 -156 232 -86
295 40 36 77 35 125 -3 46 -36 55 -37 93 -5 58 48 96 52 139 12z"/>
<path d="M1213 2890 c-70 -28 -146 -98 -179 -165 -47 -98 -42 -252 12 -314 83
-95 96 -112 93 -114 -26 -16 -113 -33 -145 -30 -55 6 -123 -24 -156 -68 -25
-35 -142 -294 -172 -382 -21 -62 -21 -159 0 -203 34 -72 157 -109 233 -70 l31
17 0 -108 c0 -60 -12 -207 -27 -328 l-26 -220 -110 -245 c-120 -268 -127 -300
-89 -363 38 -60 67 -67 264 -67 95 0 178 4 184 8 19 12 44 70 50 115 5 37 2
47 -22 76 -15 18 -45 41 -65 50 l-37 16 67 115 c37 63 89 170 116 237 27 68
50 121 52 119 2 -1 14 -40 27 -85 l24 -83 -28 -56 c-54 -111 -82 -219 -95
-372 -11 -127 -89 -114 719 -119 383 -2 706 -1 720 3 13 3 26 12 29 20 8 20
-29 175 -74 311 -98 296 -245 516 -444 662 l-30 22 24 17 c36 26 61 90 61 159
0 79 -26 135 -76 165 -22 13 -40 24 -42 26 -2 1 4 30 13 65 29 109 15 194 -53
321 -1 3 11 9 27 13 17 4 33 11 36 16 15 24 22 1 28 -90 3 -54 17 -154 31
-222 28 -137 102 -379 120 -392 6 -4 41 -6 78 -4 91 6 161 41 232 118 56 60
136 205 136 246 0 12 -15 31 -37 46 -108 75 -197 198 -239 332 -31 98 -36 247
-10 307 32 75 13 160 -51 220 -53 50 -136 63 -213 32 -37 -15 -43 -15 -82 1
-26 10 -70 17 -111 17 -57 0 -80 -6 -133 -32 -65 -32 -130 -95 -140 -137 -3
-12 1 -32 9 -43 14 -20 14 -26 -1 -58 -23 -56 -20 -157 7 -214 13 -26 29 -52
37 -59 19 -16 18 -29 -5 -29 -10 0 -45 -13 -77 -30 -32 -16 -60 -30 -61 -30
-2 0 -3 28 -3 62 0 86 -22 117 -130 179 -12 7 -7 16 27 51 78 79 107 185 78
283 -16 57 -16 58 6 81 19 21 20 26 9 54 -18 45 -82 106 -142 136 -73 38 -199
44 -275 14z m208 -75 c48 -17 128 -79 117 -91 -4 -4 -72 -11 -150 -16 -79 -5
-158 -12 -176 -14 -43 -6 -94 -59 -112 -115 -13 -40 -15 -42 -18 -16 -6 47 26
135 65 178 73 81 174 108 274 74z m108 -216 c59 -168 -114 -332 -277 -263 -38
15 -87 56 -102 85 -11 20 32 146 60 173 18 18 37 22 138 27 64 3 129 6 144 7
21 2 28 -4 37 -29z m555 -31 c54 -16 128 -90 144 -144 23 -79 12 -159 -23
-168 -37 -9 -54 3 -66 48 -6 22 -18 49 -27 60 -24 26 -74 46 -119 46 -57 0
-111 18 -145 49 l-31 27 40 34 c68 57 142 73 227 48z m277 -24 c15 -15 31 -39
34 -54 7 -33 -14 -87 -43 -114 -24 -21 -26 -18 -36 45 -4 20 -21 61 -40 92
-19 31 -31 59 -27 62 14 15 84 -4 112 -31z m-399 -217 l83 -13 17 -54 c10 -31
30 -65 45 -79 l27 -23 -24 -18 c-24 -18 -85 -40 -111 -40 -64 0 -151 58 -175
117 -14 33 -19 109 -8 137 5 14 9 14 35 1 15 -8 66 -21 111 -28z m402 -123
c16 -170 85 -316 211 -440 l82 -82 -35 -66 c-47 -89 -125 -161 -199 -182 -30
-9 -59 -12 -64 -7 -13 13 -76 242 -100 365 -15 76 -22 155 -23 241 l-1 128 32
27 c18 15 35 39 38 54 6 23 16 31 46 37 3 0 9 -33 13 -75z m-995 15 c79 -12
157 -45 176 -73 10 -13 15 -46 15 -94 l0 -74 -47 7 c-69 10 -177 49 -239 86
-55 34 -152 124 -143 134 7 6 104 22 144 24 17 0 59 -4 94 -10z m-316 -69 c16
-18 27 -42 27 -58 0 -28 -34 -112 -45 -112 -13 0 -165 85 -165 93 0 26 34 80
62 97 43 27 84 20 121 -20z m176 -148 c124 -81 293 -118 497 -109 107 5 135 3
153 -9 27 -20 28 -65 0 -90 -19 -17 -38 -19 -213 -19 -154 0 -205 4 -261 19
-78 20 -238 92 -271 122 l-22 19 24 53 c13 28 26 52 28 52 3 0 32 -17 65 -38z
m704 4 c36 -15 83 -65 98 -105 16 -40 12 -157 -7 -214 -11 -34 -29 -62 -51
-80 -18 -16 -40 -42 -48 -57 -17 -33 -21 -164 -6 -203 15 -38 79 -98 160 -147
194 -118 358 -354 454 -650 37 -113 61 -209 56 -214 -2 -2 -293 -1 -646 2
l-643 5 0 36 c0 81 40 226 88 326 48 99 107 179 250 345 85 99 147 215 157
293 10 78 -15 127 -96 197 -36 30 -75 67 -87 81 -45 55 -45 55 107 62 149 7
191 18 228 58 61 68 41 184 -39 225 -30 16 -148 22 -169 9 -5 -4 -9 -1 -9 4 0
6 3 11 8 11 4 1 30 7 57 15 65 18 98 18 138 1z m-950 -98 c18 -13 17 -18 -16
-98 -19 -47 -40 -102 -47 -123 -24 -75 -109 -100 -161 -48 -46 47 -37 113 40
284 l30 68 68 -35 c37 -19 76 -41 86 -48z m127 -78 c54 -39 176 -90 269 -114
l93 -23 29 -54 c16 -29 36 -60 44 -69 11 -12 15 -41 15 -108 l0 -92 -275 0
-275 0 0 162 c0 159 1 163 32 240 18 43 34 78 36 78 2 0 17 -9 32 -20z m1000
-300 c16 -16 20 -33 20 -85 0 -52 -4 -69 -20 -85 -26 -26 -68 -25 -97 2 -33
31 -33 131 -1 165 27 29 71 30 98 3z m-422 -100 c12 -18 22 -48 22 -66 0 -34
-38 -144 -50 -144 -8 0 -20 124 -20 202 0 58 13 60 48 8z m-115 -238 l7 -83
-68 -77 c-37 -42 -77 -90 -89 -107 -12 -16 -23 -28 -25 -25 -2 3 -17 50 -32
105 -37 134 -56 161 -93 137 -7 -4 -48 -96 -92 -203 -48 -118 -109 -246 -156
-326 -49 -84 -75 -141 -73 -155 2 -18 15 -27 62 -43 66 -23 82 -40 72 -79 l-7
-27 -155 3 c-140 3 -157 5 -170 22 -8 11 -14 28 -14 37 0 10 49 128 108 262
l109 243 22 179 c12 99 24 190 27 203 l4 22 278 -2 277 -3 8 -83z"/>
</g>
</svg>
