<?xml version="1.0" standalone="no"?>
<!DOCTYPE svg PUBLIC "-//W3C//DTD SVG 20010904//EN"
 "http://www.w3.org/TR/2001/REC-SVG-20010904/DTD/svg10.dtd">
<svg version="1.0" xmlns="http://www.w3.org/2000/svg"
 width="512.000000pt" height="512.000000pt" viewBox="0 0 512.000000 512.000000"
 preserveAspectRatio="xMidYMid meet">

<g transform="translate(0.000000,512.000000) scale(0.100000,-0.100000)"
fill="#000000" stroke="none">
<path d="M2847 4890 c-316 -58 -593 -204 -829 -441 l-126 -126 -74 14 c-119
23 -367 13 -493 -21 -530 -143 -895 -637 -872 -1181 19 -430 265 -814 644
-1003 l73 -36 0 -911 c0 -826 2 -913 16 -934 37 -53 -8 -51 1265 -51 1309 0
1231 -4 1263 65 14 29 16 127 16 853 l0 819 90 46 c361 185 641 510 769 892
59 176 75 281 75 485 1 204 -11 286 -65 465 -119 390 -400 724 -769 914 -136
70 -227 104 -370 138 -150 36 -453 42 -613 13z m543 -215 c398 -87 734 -343
917 -700 102 -199 145 -376 144 -605 0 -334 -101 -612 -317 -871 -112 -134
-285 -268 -434 -337 -154 -70 -158 -72 -174 -106 -14 -30 -16 -96 -16 -515 l0
-481 -105 0 -105 0 0 231 0 231 -34 34 c-47 47 -95 47 -142 0 l-34 -34 0 -231
0 -231 -110 0 -110 0 0 231 c0 139 -4 238 -10 250 -6 10 -24 26 -40 34 -45 23
-85 19 -122 -14 l-33 -29 -3 -236 -3 -236 -215 0 -214 0 0 231 c0 139 -4 238
-10 250 -6 10 -24 26 -40 34 -45 23 -85 19 -122 -14 l-33 -29 -3 -236 -3 -236
-104 0 -104 0 -3 234 c-3 232 -3 235 -27 260 -32 34 -84 43 -128 22 -57 -27
-63 -56 -63 -301 l0 -215 -105 0 -105 0 0 574 0 574 -26 31 c-14 17 -30 31
-36 31 -29 0 -202 94 -273 147 -179 136 -315 350 -360 568 -21 104 -21 286 0
390 72 348 329 625 682 731 77 24 106 27 238 28 126 1 165 -3 247 -23 123 -30
135 -26 218 79 218 277 524 449 895 504 65 10 352 -3 425 -19z m120 -4045 l0
-210 -1065 0 -1065 0 0 210 0 210 1065 0 1065 0 0 -210z"/>
<path d="M3064 4471 c-36 -22 -58 -75 -49 -114 4 -14 19 -37 34 -51 25 -24 39
-28 137 -36 179 -16 311 -63 458 -163 126 -85 246 -234 312 -386 39 -89 60
-180 73 -311 8 -89 11 -96 41 -123 29 -26 38 -29 79 -24 73 8 91 37 91 145 0
164 -61 373 -150 523 -185 307 -487 505 -835 548 -124 15 -155 14 -191 -8z"/>
</g>
</svg>
