<?xml version="1.0" standalone="no"?>
<!DOCTYPE svg PUBLIC "-//W3C//DTD SVG 20010904//EN"
 "http://www.w3.org/TR/2001/REC-SVG-20010904/DTD/svg10.dtd">
<svg version="1.0" xmlns="http://www.w3.org/2000/svg"
 width="260.000000pt" height="280.000000pt" viewBox="0 0 260.000000 280.000000"
 preserveAspectRatio="xMidYMid meet">

<g transform="translate(0.000000,280.000000) scale(0.100000,-0.100000)"
fill="#000000" stroke="none">
<path d="M1730 2322 c-16 -16 -32 -45 -35 -64 -5 -24 -22 -51 -53 -81 -40 -40
-60 -50 -137 -72 -201 -58 -341 -123 -408 -190 -35 -35 -56 -46 -121 -64 -214
-59 -411 -197 -509 -358 -32 -52 -43 -62 -80 -73 -24 -6 -66 -28 -93 -49 -131
-99 -153 -291 -49 -427 l23 -31 -47 -20 c-75 -31 -103 -112 -61 -180 40 -67
-21 -63 1045 -63 1066 0 1005 -4 1045 63 43 69 13 150 -67 182 l-49 20 17 40
c56 124 62 281 15 416 l-26 76 20 59 c12 32 30 95 41 139 18 73 26 85 77 138
45 45 63 57 88 57 44 0 97 39 111 81 19 59 7 88 -66 154 -6 6 -24 24 -39 42
-70 78 -202 30 -202 -74 0 -22 -15 -43 -62 -90 -60 -59 -67 -62 -162 -88 -55
-15 -123 -35 -151 -46 -48 -18 -85 -18 -85 0 0 5 9 43 20 87 18 68 27 85 67
126 35 35 55 48 76 48 15 0 37 5 48 10 22 13 49 61 49 90 0 32 -25 74 -54 89
-14 8 -28 23 -32 33 -7 24 -55 48 -94 48 -21 0 -41 -9 -60 -28z m98 -79 c3
-29 7 -33 32 -33 20 0 31 -6 35 -20 9 -30 -4 -43 -39 -37 -27 4 -38 -2 -82
-45 l-52 -50 -26 23 -26 23 54 55 c41 41 53 60 46 70 -13 22 7 53 33 49 17 -2
23 -11 25 -35z m483 -163 c12 -7 19 -21 19 -40 0 -24 4 -30 21 -30 36 0 59
-19 59 -49 0 -38 -21 -54 -61 -46 -28 6 -36 2 -88 -48 l-56 -56 -36 34 -37 33
59 58 c53 52 58 62 53 90 -4 21 -1 36 11 47 19 20 29 21 56 7z m-664 -52 c13
-12 23 -33 23 -47 0 -24 -25 -129 -32 -136 -2 -2 -37 6 -78 17 -51 14 -124 22
-230 27 l-155 6 74 38 c90 47 293 117 340 117 22 0 43 -8 58 -22z m-192 -218
c76 -12 185 -41 184 -49 0 -3 -26 -18 -58 -33 -156 -74 -240 -210 -229 -370
10 -135 102 -261 228 -310 77 -30 194 -30 273 1 80 31 151 104 207 211 l44 85
12 -50 c25 -106 10 -235 -41 -335 l-26 -50 -828 2 -829 3 -44 30 c-62 44 -98
113 -98 190 0 110 81 209 180 222 34 5 46 12 59 35 120 219 320 357 597 412
82 17 284 20 369 6z m667 -19 l32 -29 -13 -63 c-34 -167 -146 -438 -210 -511
-81 -92 -230 -120 -343 -65 -176 86 -222 311 -94 454 64 71 197 137 411 203
161 49 173 50 217 11z m41 -962 c41 -22 49 -59 20 -91 -15 -17 -59 -18 -976
-18 -880 0 -962 1 -979 17 -30 27 -23 69 17 91 29 16 1887 17 1918 1z"/>
<path d="M603 95 c0 -27 2 -38 4 -22 2 15 8 27 13 27 5 0 11 -12 13 -27 4 -26
4 -26 6 5 1 22 -4 32 -13 32 -8 0 -17 8 -19 18 -3 9 -5 -5 -4 -33z"/>
<path d="M1102 95 c0 -27 2 -43 5 -35 3 8 13 24 22 35 15 18 15 19 -1 7 -14
-12 -17 -10 -21 15 -2 16 -4 6 -5 -22z"/>
<path d="M720 120 c-4 -25 1 -54 10 -63 4 -5 5 3 3 17 -4 19 -1 26 11 26 9 0
16 -8 16 -19 0 -11 4 -22 9 -25 5 -4 7 3 4 15 -3 12 -1 24 4 28 7 4 6 11 -3
19 -8 7 -14 8 -14 2 0 -14 -27 -13 -33 3 -4 8 -6 8 -7 -3z"/>
<path d="M949 118 c-2 -25 3 -53 11 -62 5 -5 6 1 3 14 -3 12 -1 25 4 29 7 4 6
11 -3 19 -11 10 -14 10 -15 0z"/>
<path d="M1485 120 c-3 -5 0 -7 8 -4 24 9 28 -12 7 -31 -27 -25 -25 -35 8 -34
21 0 23 2 9 7 -15 7 -16 10 -3 27 7 10 12 25 9 32 -6 15 -29 17 -38 3z"/>
<path d="M1545 120 c-3 -5 0 -7 8 -4 24 9 28 -12 7 -31 -27 -25 -25 -35 8 -34
21 0 23 2 9 7 -15 7 -16 10 -3 27 7 10 12 25 9 32 -6 15 -29 17 -38 3z"/>
<path d="M1605 120 c-3 -5 0 -7 8 -4 24 9 28 -12 7 -31 -27 -25 -25 -35 8 -34
21 0 23 2 9 7 -15 7 -16 10 -3 27 7 10 12 25 9 32 -6 15 -29 17 -38 3z"/>
<path d="M1672 105 c-22 -28 -23 -30 -5 -34 10 -2 21 -8 24 -13 10 -15 16 14
10 47 l-6 29 -23 -29z m14 -22 c-10 -10 -19 5 -10 18 6 11 8 11 12 0 2 -7 1
-15 -2 -18z"/>
<path d="M1727 123 c-2 -5 -4 -21 -5 -36 -2 -30 22 -47 41 -28 15 15 47 14 47
-1 0 -10 2 -10 8 0 5 7 6 27 4 44 l-5 32 -23 -27 c-29 -33 -34 -34 -34 -2 0
23 -23 36 -33 18z m23 -13 c0 -5 -4 -10 -10 -10 -5 0 -10 5 -10 10 0 6 5 10
10 10 6 0 10 -4 10 -10z m56 -27 c-10 -10 -19 5 -10 18 6 11 8 11 12 0 2 -7 1
-15 -2 -18z m-54 -8 c0 -5 -5 -11 -11 -13 -6 -2 -11 4 -11 13 0 9 5 15 11 13
6 -2 11 -8 11 -13z"/>
<path d="M1845 120 c-4 -6 1 -7 11 -3 13 5 16 3 11 -10 -3 -9 -2 -19 4 -22 14
-9 -1 -27 -18 -21 -8 3 -11 1 -8 -4 8 -14 32 -13 37 2 13 39 -18 88 -37 58z"/>
<path d="M1905 120 c-4 -6 1 -7 11 -3 13 5 16 3 11 -10 -3 -9 -2 -19 4 -22 14
-9 -1 -27 -18 -21 -8 3 -11 1 -8 -4 8 -13 35 -13 35 0 0 6 11 10 25 10 14 0
25 -6 25 -12 0 -10 2 -10 8 0 5 7 6 27 4 44 l-5 32 -22 -26 c-24 -28 -35 -27
-35 4 0 19 -25 25 -35 8z m81 -37 c-10 -10 -19 5 -10 18 6 11 8 11 12 0 2 -7
1 -15 -2 -18z"/>
<path d="M2037 123 c22 -4 22 -6 8 -33 -22 -42 -17 -51 5 -10 25 46 25 50 -7
49 -24 -2 -25 -2 -6 -6z"/>
<path d="M550 93 c0 -10 4 -14 8 -8 4 6 11 13 16 18 5 4 2 7 -7 7 -10 0 -17
-8 -17 -17z"/>
<path d="M661 83 c-1 -27 3 -33 19 -33 16 0 20 6 19 33 -2 30 -2 30 -6 5 -6
-36 -20 -36 -26 0 -4 25 -4 25 -6 -5z"/>
<path d="M807 104 c-13 -13 -7 -24 14 -24 11 0 19 5 17 12 -5 14 -22 21 -31
12z"/>
<path d="M861 78 c2 -28 2 -29 6 -8 3 14 10 28 17 32 7 5 5 8 -6 8 -14 0 -18
-8 -17 -32z"/>
<path d="M900 93 c0 -10 4 -14 8 -8 4 6 11 13 16 18 5 4 2 7 -7 7 -10 0 -17
-8 -17 -17z"/>
<path d="M994 95 c-8 -21 2 -45 20 -45 7 0 16 7 20 15 8 21 -3 45 -20 45 -8 0
-17 -7 -20 -15z m31 -15 c0 -7 -6 -15 -12 -17 -8 -3 -13 4 -13 17 0 13 5 20
13 18 6 -3 12 -11 12 -18z"/>
<path d="M1054 95 c-8 -20 2 -45 18 -44 10 0 10 2 1 6 -7 2 -13 13 -13 23 0
10 6 21 13 23 9 4 9 6 -1 6 -7 1 -15 -6 -18 -14z"/>
<path d="M1194 95 c-8 -20 2 -45 18 -44 10 0 10 2 1 6 -7 2 -13 13 -13 23 0
10 6 21 13 23 9 4 9 6 -1 6 -7 1 -15 -6 -18 -14z"/>
<path d="M1244 95 c-8 -21 2 -45 20 -45 19 0 29 29 15 46 -15 18 -28 18 -35
-1z m31 -15 c0 -7 -6 -15 -12 -17 -8 -3 -13 4 -13 17 0 13 5 20 13 18 6 -3 12
-11 12 -18z"/>
<path d="M1301 77 c2 -31 2 -31 6 -4 2 15 8 27 13 27 5 0 11 -12 13 -27 l4
-28 2 28 c0 15 5 27 10 27 5 0 12 -12 14 -27 4 -27 4 -27 6 4 1 29 -1 31 -34
31 -33 0 -35 -2 -34 -31z"/>
<path d="M562 65 c-11 -12 -10 -15 3 -15 8 0 15 7 15 15 0 18 -2 18 -18 0z"/>
<path d="M912 65 c-11 -12 -10 -15 3 -15 8 0 15 7 15 15 0 18 -2 18 -18 0z"/>
<path d="M1120 71 c0 -5 5 -13 10 -16 6 -3 10 -2 10 4 0 5 -4 13 -10 16 -5 3
-10 2 -10 -4z"/>
<path d="M808 58 c5 -5 16 -8 23 -6 8 3 3 7 -10 11 -17 4 -21 3 -13 -5z"/>
</g>
</svg>
