<?xml version="1.0" standalone="no"?>
<!DOCTYPE svg PUBLIC "-//W3C//DTD SVG 20010904//EN"
 "http://www.w3.org/TR/2001/REC-SVG-20010904/DTD/svg10.dtd">
<svg version="1.0" xmlns="http://www.w3.org/2000/svg"
 width="660.000000pt" height="400.000000pt" viewBox="0 0 660.000000 400.000000"
 preserveAspectRatio="xMidYMid meet">

<g transform="translate(0.000000,400.000000) scale(0.100000,-0.100000)"
fill="#000000" stroke="none">
<path d="M4328 3893 c-20 -22 -648 -817 -768 -973 -72 -93 -83 -159 -46 -273
45 -136 30 -220 -60 -332 -70 -87 -129 -174 -138 -201 -4 -13 5 -38 27 -75 50
-82 81 -129 87 -129 7 0 117 177 166 264 84 153 155 200 329 215 101 10 137
30 194 111 39 56 592 1020 632 1103 21 43 21 74 0 51 -5 -5 -156 -218 -336
-474 -181 -256 -336 -474 -346 -485 -13 -13 -22 -16 -29 -9 -7 7 82 169 290
524 166 282 302 518 303 523 10 48 -68 -50 -372 -468 -195 -267 -357 -485
-362 -485 -4 0 -11 5 -14 10 -4 6 136 237 309 514 174 278 316 509 316 515 0
6 -6 11 -12 10 -7 0 -177 -214 -378 -474 -201 -261 -369 -475 -373 -475 -4 0
-10 6 -13 13 -3 8 139 237 316 510 176 273 320 501 320 507 0 17 -15 11 -42
-17z"/>
<path d="M1890 3892 c-47 -25 -73 -75 -65 -127 12 -78 105 -386 139 -460 49
-105 196 -374 446 -810 159 -279 224 -383 262 -422 52 -53 144 -105 208 -118
80 -17 157 -69 204 -139 19 -28 217 -400 441 -826 224 -426 419 -790 433 -808
52 -68 153 -93 238 -57 51 21 83 51 105 100 42 92 23 144 -153 416 -525 812
-2037 3143 -2067 3186 -58 83 -117 104 -191 65z"/>
<path d="M2540 1089 c-267 -358 -495 -669 -507 -691 -43 -77 -23 -188 43 -250
77 -72 181 -63 279 23 20 18 93 124 164 238 230 370 584 955 602 996 32 69 25
122 -27 224 -26 50 -51 95 -58 100 -8 6 -159 -189 -496 -640z"/>
</g>
</svg>
